<svg viewBox="0 0 50 50" fill="none" xmlns="http://www.w3.org/2000/svg">
    <g clip-path="url(#clip0_336_6)">
        <path
            d="M15.1316 0C6.78816 0 0 6.78816 0 15.1316V34.8684C0 43.2118 6.78816 50 15.1316 50H34.8684C43.2118 50 50 43.2118 50 34.8684V15.1316C50 6.78816 43.2118 0 34.8684 0H15.1316ZM38.1579 9.21053C39.6118 9.21053 40.7895 10.3882 40.7895 11.8421C40.7895 13.2947 39.6118 14.4737 38.1579 14.4737C36.7039 14.4737 35.5263 13.2947 35.5263 11.8421C35.5263 10.3882 36.7039 9.21053 38.1579 9.21053ZM25 11.8421C32.2553 11.8421 38.1579 17.7447 38.1579 25C38.1579 32.2553 32.2553 38.1579 25 38.1579C17.7447 38.1579 11.8421 32.2553 11.8421 25C11.8421 17.7447 17.7447 11.8421 25 11.8421ZM25 15.7895C23.7905 15.7895 22.5928 16.0277 21.4753 16.4906C20.3578 16.9535 19.3425 17.6319 18.4872 18.4872C17.6319 19.3425 16.9535 20.3578 16.4906 21.4753C16.0277 22.5928 15.7895 23.7905 15.7895 25C15.7895 26.2095 16.0277 27.4072 16.4906 28.5247C16.9535 29.6422 17.6319 30.6575 18.4872 31.5128C19.3425 32.3681 20.3578 33.0465 21.4753 33.5094C22.5928 33.9723 23.7905 34.2105 25 34.2105C26.2095 34.2105 27.4072 33.9723 28.5247 33.5094C29.6422 33.0465 30.6575 32.3681 31.5128 31.5128C32.3681 30.6575 33.0465 29.6422 33.5094 28.5247C33.9723 27.4072 34.2105 26.2095 34.2105 25C34.2105 23.7905 33.9723 22.5928 33.5094 21.4753C33.0465 20.3578 32.3681 19.3425 31.5128 18.4872C30.6575 17.6319 29.6422 16.9535 28.5247 16.4906C27.4072 16.0277 26.2095 15.7895 25 15.7895Z"
            fill="currentColor" />
    </g>
    <defs>
        <clipPath id="clip0_336_6">
            <rect width="50" height="50" fill="white" />
        </clipPath>
    </defs>
</svg>
    