<svg viewBox="0 0 123 65" fill="none" xmlns="http://www.w3.org/2000/svg">
<path d="M3.94887 19.63C3.90571 19.0233 3.88413 18.07 3.88413 16.77C3.88413 12.09 4.3157 7.15 5.17884 1.95C5.39463 0.649999 6.04198 0 7.12091 0C8.41562 0 9.06297 0.628333 9.06297 1.885C9.06297 2.10167 9.01982 2.47 8.9335 2.99C8.15668 7.67 7.76826 12.2633 7.76826 16.77V18.915C13.4218 17.9183 17.5217 17.42 20.068 17.42C21.3627 17.42 22.0101 18.07 22.0101 19.37C22.0101 20.67 21.3627 21.32 20.068 21.32C17.5649 21.32 13.5297 21.8183 7.96247 22.815C8.86877 34.8183 12.6882 40.82 19.4207 40.82C20.9312 40.82 22.8085 40.495 25.0526 39.845C27.2968 39.195 28.4836 38.87 28.6131 38.87C29.9078 38.87 30.5552 39.52 30.5552 40.82C30.5552 41.7733 29.9078 42.4667 28.6131 42.9C24.9879 44.1133 21.9238 44.72 19.4207 44.72C15.4071 44.72 12.0192 43.0733 9.25718 39.78C6.49513 36.4867 4.79043 31.07 4.14307 23.53L2.65416 23.855C2.26574 23.8983 2.02838 23.92 1.94207 23.92C0.647355 23.92 0 23.27 0 21.97C0 20.93 0.647355 20.28 1.94207 20.02C2.76205 19.8467 3.43098 19.7167 3.94887 19.63Z" fill="currentColor"/>
<path d="M63.4711 23.27C62.3059 23.27 61.2917 23.4217 60.4286 23.725C59.6086 23.985 58.6807 24.31 57.645 24.7C56.6092 25.0467 55.7676 25.3283 55.1203 25.545C56.3718 27.365 56.9976 29.0117 56.9976 30.485C56.9976 31.9583 56.6739 33.4317 56.0266 34.905C55.4224 36.335 54.5161 37.8083 53.3077 39.325C52.0993 40.8417 50.3946 42.12 48.1936 43.16C45.9926 44.2 43.6189 44.72 41.0727 44.72C38.5264 44.72 36.2175 43.8967 34.146 42.25C32.1176 40.6033 31.1034 38.3933 31.1034 35.62C31.1034 31.85 32.3118 28.7517 34.7286 26.325C37.1454 23.855 40.0369 22.62 43.4031 22.62C44.6978 22.62 45.3452 23.27 45.3452 24.57C45.3452 25.87 44.6978 26.52 43.4031 26.52C41.0727 26.52 39.0874 27.3867 37.4475 29.12C35.8075 30.8533 34.9875 33.02 34.9875 35.62C34.9875 37.2667 35.6133 38.545 36.8649 39.455C38.1164 40.365 39.6053 40.82 41.3316 40.82C43.101 40.82 44.8273 40.4083 46.5104 39.585C48.2367 38.7617 49.5314 37.7867 50.3946 36.66C52.2072 34.32 53.1135 32.5 53.1135 31.2C53.1135 29.9 52.833 28.8817 52.2719 28.145C51.7109 27.4083 51.0635 26.9533 50.3298 26.78C49.1646 26.4767 48.582 25.9567 48.582 25.22C48.582 24.4833 48.9057 23.92 49.553 23.53C50.2004 23.14 51.1714 22.7283 52.4661 22.295C53.7608 21.8617 55.034 21.4283 56.2855 20.995C57.5371 20.605 58.4218 20.3233 58.9397 20.15C60.6228 19.63 62.1333 19.37 63.4711 19.37C67.3553 19.37 69.2973 23.27 69.2973 31.07C69.2973 36.7033 69.9447 39.52 71.2394 39.52C71.8005 39.52 72.3831 38.935 72.9873 37.765C73.7641 36.2917 74.5409 34.6667 75.3177 32.89C76.1377 31.07 76.7204 29.7917 77.0656 29.055C77.454 28.275 77.9935 27.3217 78.684 26.195C79.3745 25.1117 80.0434 24.2667 80.6908 23.66C82.3739 22.1433 84.2081 21.3633 86.1933 21.32C87.4017 21.32 88.2433 21.5583 88.718 22.035C89.2359 22.5117 89.6243 22.9017 89.8832 23.205C90.1422 23.5083 90.358 23.9417 90.5306 24.505C90.7464 25.0683 90.919 25.5233 91.0485 25.87C91.178 26.2167 91.2858 26.7367 91.3722 27.43C91.4585 28.1233 91.5232 28.6 91.5664 28.86C91.739 29.9867 91.8253 30.8533 91.8253 31.46C92.3432 36.8333 93.0121 39.52 93.8321 39.52C94.6953 39.52 95.4505 39.4117 96.0979 39.195C96.7452 38.9783 97.1336 38.87 97.2631 38.87C98.5578 38.87 99.2051 39.52 99.2051 40.82C99.2051 41.7733 98.6225 42.445 97.4573 42.835C96.2921 43.225 95.2563 43.42 94.35 43.42C93.4869 43.42 92.7963 43.3333 92.2785 43.16C91.8037 42.9867 91.3937 42.705 91.0485 42.315C90.7032 41.925 90.3795 41.5567 90.0774 41.21C89.8185 40.82 89.5811 40.3 89.3654 39.65C89.1496 39 88.9769 38.4583 88.8475 38.025C88.718 37.5917 88.5885 37.0067 88.4591 36.27C88.3727 35.5333 88.308 34.9917 88.2649 34.645C88.0922 33.2583 88.0059 32.3267 88.0059 31.85C87.6175 28.1233 87.1859 26 86.7112 25.48C86.4954 25.3067 86.3012 25.22 86.1286 25.22C85.136 25.22 84.1865 25.6967 83.2802 26.65C82.3739 27.56 81.6618 28.5133 81.1439 29.51C80.6692 30.5067 80.065 31.8283 79.3314 33.475C78.6408 35.0783 78.1661 36.1617 77.9072 36.725C77.6482 37.245 77.2167 38.0683 76.6125 39.195C76.0514 40.2783 75.5551 41.0367 75.1235 41.47C73.8288 42.77 72.5341 43.42 71.2394 43.42C67.3553 43.42 65.4132 39.3033 65.4132 31.07C65.4132 25.87 64.7659 23.27 63.4711 23.27Z" fill="currentColor"/>
<path d="M123 27.17C123 32.63 122.741 38.48 122.223 44.72C121.748 51.0033 121.144 55.8133 120.411 59.15C119.591 63.05 117.649 65 114.584 65C108.974 65 106.169 61.23 106.169 53.69C106.169 51.61 106.73 49.595 107.852 47.645C109.017 45.695 110.312 44.72 111.736 44.72C113.203 44.72 113.937 45.37 113.937 46.67C113.937 46.9733 113.635 47.3417 113.031 47.775C111.046 49.1617 110.053 51.09 110.053 53.56C110.053 56.0733 110.355 57.9583 110.959 59.215C111.607 60.4717 112.815 61.1 114.584 61.1C115.62 61.1 116.332 60.1033 116.721 58.11C117.541 54.2533 118.21 48.1433 118.727 39.78C118.9 37.1367 118.965 35.5333 118.922 34.97C118.015 36.27 117.346 37.0933 116.915 37.44C116.526 37.7433 116.116 38.0683 115.685 38.415C115.296 38.7183 114.908 38.9783 114.52 39.195C114.174 39.3683 113.721 39.585 113.16 39.845C112.642 40.0617 112.103 40.235 111.542 40.365C110.247 40.6683 108.888 40.82 107.463 40.82C105.176 40.82 103.536 39.52 102.544 36.92C101.206 33.4967 100.278 29.1633 99.76 23.92C99.7168 23.66 99.6952 23.3133 99.6952 22.88C99.6952 21.84 100.299 21.32 101.508 21.32C102.759 21.32 103.45 21.97 103.579 23.27C103.881 26.13 104.378 29.12 105.068 32.24C105.802 35.36 106.6 36.92 107.463 36.92C110.269 36.92 112.448 36.205 114.002 34.775C115.555 33.345 117.26 30.81 119.116 27.17C119.634 25.87 120.281 25.22 121.058 25.22C122.353 25.22 123 25.87 123 27.17Z" fill="currentColor"/>
<path d="M63.4015 8.3289C63.3914 8.62141 63.3864 9.03709 63.3864 9.57593C63.3864 10.1096 63.3538 10.4252 63.2886 10.5227C63.2285 10.6151 63.0705 10.6613 62.8148 10.6613C62.7296 10.6613 62.5165 10.5664 62.1755 10.3765C61.8345 10.1815 61.5262 9.90949 61.2504 9.56053C61.1351 9.41684 60.393 8.3212 59.0241 6.27362C57.6553 4.22603 56.848 3.20224 56.6023 3.20224C56.502 3.20224 56.4519 3.90016 56.4519 5.29601C56.4519 6.68673 56.5497 7.93888 56.7452 9.05248C56.8004 9.36552 56.8956 9.61955 57.031 9.81456C57.1714 10.0096 57.2416 10.1712 57.2416 10.2995L57.1815 10.4766C57.036 10.651 56.5547 10.7383 55.7374 10.7383H55.414C54.7672 10.7383 54.3836 10.6895 54.2632 10.592C54.1429 10.4945 54.0827 10.3483 54.0827 10.1533C54.0827 10.0455 54.2206 9.90693 54.4964 9.73758C54.7772 9.5631 54.9452 9.39118 55.0003 9.22183C55.0304 9.12946 55.0454 8.67273 55.0454 7.85164L55.0605 7.48216L55.083 6.37369C55.0981 5.63984 55.1056 4.80592 55.1056 3.87194C55.1056 2.93282 55.0705 2.34523 55.0003 2.10917C54.9351 1.86797 54.7521 1.63448 54.4513 1.40868C54.1504 1.17775 54 0.969909 54 0.785164C54 0.595288 54.0702 0.451598 54.2106 0.354094C54.356 0.251458 54.6343 0.20014 55.0454 0.20014H55.3839C56.1962 0.20014 56.9182 0.551668 57.55 1.25472C58.1818 1.95778 59.0241 3.09447 60.0771 4.6648C61.1351 6.23513 61.7443 7.02029 61.9047 7.02029C62.0953 7.02029 62.1905 6.00933 62.1905 3.9874C62.1905 2.48379 62.0276 1.53697 61.7017 1.14696C61.5161 0.921157 61.4234 0.764637 61.4234 0.677397C61.4234 0.446466 61.6515 0.331001 62.1078 0.331001C63.0204 0.331001 63.6471 0.372055 63.9881 0.454164C64.3341 0.531141 64.5071 0.695358 64.5071 0.946816C64.5071 1.09564 64.3566 1.32657 64.0558 1.63961C63.76 1.94752 63.597 2.16562 63.5669 2.29391C63.5368 2.41707 63.5218 3.01236 63.5218 4.07978L63.424 7.6515L63.4165 7.9902L63.4015 8.3289Z" fill="currentColor"/>
<path d="M71.5276 9.64521C72.5655 9.64007 73.0845 9.1038 73.0845 8.03639C73.0845 7.46163 72.9993 7.06391 72.8288 6.84325C72.538 6.45836 72.3925 6.22743 72.3925 6.15045C72.3925 5.84768 72.8614 5.69629 73.799 5.69629C74.4909 5.69629 75.0375 5.74504 75.4386 5.84255C75.7194 5.90926 75.8598 6.05552 75.8598 6.28132C75.8598 6.40961 75.7971 6.57383 75.6718 6.77397C75.5514 6.97411 75.4812 7.13576 75.4612 7.25892C75.4411 7.38209 75.4035 7.70795 75.3484 8.23653C75.2982 8.75997 75.2706 9.04222 75.2656 9.08327C75.2004 9.5554 75.0751 9.87614 74.8896 10.0455C74.7091 10.2148 74.4007 10.3662 73.9645 10.4997C73.0469 10.7819 72.192 10.923 71.3998 10.923H71.0989C70.3969 10.923 69.72 10.7845 69.0682 10.5073C67.8097 9.97364 66.9472 9.06788 66.4809 7.79006C66.2402 7.12806 66.1199 6.41987 66.1199 5.6655V5.3422C66.1199 4.62375 66.2603 3.92069 66.5411 3.23303C67.1127 1.82179 68.0528 0.862141 69.3615 0.354094C69.9632 0.118031 70.6451 0 71.4073 0C71.648 0 71.9287 0.0230931 72.2496 0.0692792C72.5705 0.115465 72.9767 0.138558 73.4681 0.138558C73.9645 0.138558 74.3581 0.251458 74.6489 0.477257C74.9447 0.697924 75.0926 1.09307 75.0926 1.6627C75.0926 2.44787 74.9422 2.84045 74.6414 2.84045C74.501 2.84045 74.17 2.64031 73.6486 2.24003C73.1271 1.83975 72.726 1.57803 72.4452 1.45486C72.1644 1.3317 71.7934 1.27012 71.3321 1.27012C70.8708 1.27525 70.4546 1.39072 70.0835 1.61652C68.9804 2.29391 68.4289 3.54094 68.4289 5.35759C68.4289 6.64567 68.7272 7.6823 69.3239 8.46746C69.9206 9.25262 70.6552 9.64521 71.5276 9.64521Z" fill="currentColor"/>
<path d="M82.211 10.9153C81.494 10.9153 80.8572 10.7614 80.3006 10.4535C79.2476 9.86844 78.6459 8.90623 78.4955 7.56683L78.473 7.25122C78.4679 7.14346 78.4654 6.93049 78.4654 6.61232L78.488 5.06508V3.3408C78.488 2.39655 78.4629 1.86541 78.4128 1.74738C78.3626 1.62421 78.1796 1.47796 77.8637 1.30861C77.5529 1.13413 77.3974 0.941684 77.3974 0.731281V0.484955C77.3974 0.310474 77.5829 0.205272 77.954 0.169349C78.7061 0.0923723 79.551 0.0538838 80.4886 0.0538838C81.0903 0.0538838 81.3912 0.169349 81.3912 0.40028C81.3912 0.410544 81.3009 0.602986 81.1204 0.977607C80.9449 1.35223 80.8221 1.75764 80.7519 2.19384C80.6867 2.62491 80.6541 3.66667 80.6541 5.3191C80.6541 6.96641 80.7794 8.05178 81.0301 8.57523C81.3811 9.30907 82.0129 9.676 82.9255 9.676C83.838 9.676 84.4974 9.32703 84.9035 8.62911C85.1994 8.12106 85.3473 6.92792 85.3473 5.04969C85.3473 3.16632 85.2244 1.93725 84.9788 1.36249L84.8735 1.17005L84.7456 0.993002C84.5952 0.751808 84.52 0.58759 84.52 0.50035C84.52 0.305342 84.6328 0.184745 84.8584 0.138558C84.9537 0.118031 85.3473 0.107768 86.0392 0.107768C86.7362 0.107768 87.2527 0.174481 87.5886 0.307908C87.724 0.359226 87.7917 0.50035 87.7917 0.731281C87.7917 0.95708 87.6964 1.14439 87.5059 1.29321C87.1098 1.60112 86.8891 1.83205 86.844 1.986C86.7989 2.13483 86.7763 2.84045 86.7763 4.10287L86.7914 5.01889L86.7989 5.3268C86.7989 6.55843 86.7387 7.47702 86.6184 8.08257C86.498 8.68813 86.2624 9.20387 85.9114 9.62981C85.1894 10.4868 84.0637 10.9153 82.5344 10.9153H82.211Z" fill="currentColor"/>
<path d="M95.2635 8.80616C95.2635 9.20131 95.3487 9.51948 95.5192 9.76067C95.5894 9.85818 95.7022 9.98904 95.8577 10.1533C96.0131 10.3175 96.0908 10.4509 96.0908 10.5535C96.0908 10.8512 95.8527 11 95.3763 11C95.2309 11 95.0629 10.9923 94.8724 10.9769L94.3986 10.9307C94.0927 10.9102 93.6991 10.8999 93.2177 10.8999C92.7364 10.8999 92.413 10.8845 92.2475 10.8537C92.0871 10.823 92.0068 10.7357 92.0068 10.592C92.0068 10.4432 92.1397 10.2328 92.4055 9.96081C92.6762 9.68369 92.8592 9.44507 92.9545 9.24493C93.0498 9.03965 93.0974 8.60602 93.0974 7.94402C93.0974 7.27688 92.9319 6.64311 92.601 6.04269C91.4628 3.97457 90.6731 2.63774 90.2318 2.03219C90.1115 1.86284 89.8859 1.66014 89.5549 1.42407C89.224 1.18801 89.0585 0.959645 89.0585 0.738978C89.0585 0.518311 89.1764 0.364357 89.412 0.277117C89.763 0.14369 90.4825 0.0769769 91.5706 0.0769769H91.8263C92.5433 0.0769769 92.9018 0.261721 92.9018 0.631211L92.8718 0.80056L92.8342 0.962211C92.789 1.20854 92.7665 1.37019 92.7665 1.44717C92.7665 1.80126 93.1626 2.7763 93.9548 4.37229C94.1704 4.80849 94.3284 5.02659 94.4286 5.02659C94.6242 5.02659 95.0328 4.45696 95.6546 3.3177C95.9755 2.73268 96.136 2.31444 96.136 2.06298C96.136 1.81152 96.0758 1.56007 95.9554 1.30861C95.8401 1.05202 95.7825 0.859575 95.7825 0.731281C95.7825 0.505482 95.9103 0.354094 96.166 0.277117C96.5521 0.159086 97.1764 0.10007 98.0388 0.10007C98.6656 0.10007 98.979 0.230931 98.979 0.492652C98.979 0.805692 98.8586 1.04945 98.6179 1.22393C98.1767 1.5421 97.8934 1.79869 97.768 1.9937C97.2065 2.85584 96.5421 4.11313 95.7749 5.76557C95.434 6.49942 95.2635 7.51295 95.2635 8.80616Z" fill="currentColor"/>
<path d="M108.384 1.45486C108.384 1.79869 108.336 2.02449 108.241 2.13226C108.146 2.2349 108 2.28621 107.805 2.28621L107.669 2.21693L107.511 2.10917L107.331 2.0014C107.155 1.89876 106.817 1.75764 106.315 1.57803C105.819 1.39841 105.355 1.30861 104.924 1.30861C104.493 1.30861 104.177 1.46769 103.976 1.78586C103.781 2.10404 103.683 2.75834 103.683 3.74878C103.683 4.03102 103.768 4.25682 103.939 4.42617C104.109 4.59552 104.345 4.6802 104.646 4.6802C104.947 4.6802 105.277 4.57243 105.638 4.35689C106.005 4.14136 106.263 4.03359 106.413 4.03359C106.569 4.03359 106.704 4.13879 106.819 4.3492C106.935 4.55447 106.992 4.80079 106.992 5.08817C106.992 5.86307 106.91 6.34033 106.744 6.51994L106.541 6.63541C106.245 6.63541 106.01 6.56613 105.834 6.42757C105.448 6.1248 105.165 5.97341 104.984 5.97341C104.413 5.97341 104.029 6.09657 103.833 6.3429C103.738 6.46606 103.691 6.88943 103.691 7.61302C103.691 8.33147 103.833 8.878 104.119 9.25262C104.27 9.45276 104.601 9.55283 105.112 9.55283C105.623 9.55283 106.275 9.37579 107.068 9.02169C107.865 8.66247 108.321 8.48285 108.436 8.48285C108.652 8.48285 108.76 8.69069 108.76 9.10637V9.38348C108.76 9.52717 108.71 9.72731 108.609 9.9839C108.509 10.2405 108.354 10.4406 108.143 10.5843C107.932 10.728 107.586 10.7999 107.105 10.7999H101.652C100.82 10.7999 100.404 10.6895 100.404 10.4689V10.2225C100.404 10.0481 100.557 9.87357 100.863 9.69909C101.173 9.52461 101.354 9.3373 101.404 9.13716C101.459 8.93189 101.487 7.75157 101.487 5.59622C101.487 3.44087 101.452 2.2195 101.382 1.93212C101.311 1.64474 101.136 1.38045 100.855 1.13926C100.574 0.898064 100.434 0.659436 100.434 0.423373C100.434 0.254024 100.614 0.159086 100.975 0.138558C101.336 0.112899 102.522 0.10007 104.533 0.10007L106.488 0.0923723H106.804C107.311 0.0923723 107.667 0.166783 107.872 0.315605C108.213 0.561931 108.384 0.941684 108.384 1.45486Z" fill="currentColor"/>
<path d="M119.894 8.3289C119.884 8.62141 119.879 9.03709 119.879 9.57593C119.879 10.1096 119.847 10.4252 119.782 10.5227C119.721 10.6151 119.563 10.6613 119.308 10.6613C119.223 10.6613 119.009 10.5664 118.668 10.3765C118.327 10.1815 118.019 9.90949 117.743 9.56053C117.628 9.41684 116.886 8.3212 115.517 6.27362C114.148 4.22603 113.341 3.20224 113.095 3.20224C112.995 3.20224 112.945 3.90016 112.945 5.29601C112.945 6.68673 113.043 7.93888 113.238 9.05248C113.293 9.36552 113.389 9.61955 113.524 9.81456C113.664 10.0096 113.735 10.1712 113.735 10.2995L113.674 10.4766C113.529 10.651 113.048 10.7383 112.23 10.7383H111.907C111.26 10.7383 110.877 10.6895 110.756 10.592C110.636 10.4945 110.576 10.3483 110.576 10.1533C110.576 10.0455 110.714 9.90693 110.989 9.73758C111.27 9.5631 111.438 9.39118 111.493 9.22183C111.523 9.12946 111.538 8.67273 111.538 7.85164L111.553 7.48216L111.576 6.37369C111.591 5.63984 111.599 4.80592 111.599 3.87194C111.599 2.93282 111.563 2.34523 111.493 2.10917C111.428 1.86797 111.245 1.63448 110.944 1.40868C110.643 1.17775 110.493 0.969909 110.493 0.785164C110.493 0.595288 110.563 0.451598 110.704 0.354094C110.849 0.251458 111.127 0.20014 111.538 0.20014H111.877C112.689 0.20014 113.411 0.551668 114.043 1.25472C114.675 1.95778 115.517 3.09447 116.57 4.6648C117.628 6.23513 118.237 7.02029 118.398 7.02029C118.588 7.02029 118.683 6.00933 118.683 3.9874C118.683 2.48379 118.521 1.53697 118.195 1.14696C118.009 0.921157 117.916 0.764637 117.916 0.677397C117.916 0.446466 118.144 0.331001 118.601 0.331001C119.513 0.331001 120.14 0.372055 120.481 0.454164C120.827 0.531141 121 0.695358 121 0.946816C121 1.09564 120.85 1.32657 120.549 1.63961C120.253 1.94752 120.09 2.16562 120.06 2.29391C120.03 2.41707 120.015 3.01236 120.015 4.07978L119.917 7.6515L119.909 7.9902L119.894 8.3289Z" fill="currentColor"/>
</svg>