<svg viewBox="0 0 48 40" fill="none" xmlns="http://www.w3.org/2000/svg">
    <path d="M0 2.91765C0 1.30628 1.31359 0 2.93399 0H45.066C46.6864 0 48 1.30628 48 2.91765V3.61788C48 5.22925 46.6864 6.53553 45.066 6.53553H2.93398C1.31359 6.53553 0 5.22925 0 3.61788V2.91765Z" fill="currentColor"/>
    <path d="M0 19.4899C0 17.8785 1.31359 16.5722 2.93399 16.5722H45.066C46.6864 16.5722 48 17.8785 48 19.4899V20.1901C48 21.8015 46.6864 23.1078 45.066 23.1078H2.93398C1.31359 23.1078 0 21.8015 0 20.1901V19.4899Z" fill="currentColor"/>
    <path d="M0 36.0621C0 34.4507 1.31359 33.1445 2.93399 33.1445H45.066C46.6864 33.1445 48 34.4507 48 36.0621V36.7624C48 38.3737 46.6864 39.68 45.066 39.68H2.93398C1.31359 39.68 0 38.3737 0 36.7624V36.0621Z" fill="currentColor"/>
</svg>
    