<svg xmlns="http://www.w3.org/2000/svg" xmlns:xlink="http://www.w3.org/1999/xlink" style="isolation:isolate" viewBox="407.526 222.83 464.077 464.077" width="464.077" height="464.077">
    <g>
        <path d=" M 866.531303 406.805095 C 840.004326 281.538737 716.767387 201.374919 591.50103 227.901897 C 466.234673 254.428889 386.070854 377.665843 412.597832 502.93217 C 439.12484 628.198527 562.361748 708.362346 687.628105 681.835368 C 812.894463 655.308391 893.058281 532.071452 866.531303 406.805095 Z  M 739.813652 393.977794 L 739.813652 393.977794 C 753.68261 391.040843 762.06469 375.067149 758.520134 358.32896 L 746.845879 303.200358 C 743.455803 287.191722 727.706535 276.947063 711.697868 280.337108 L 654.269157 292.498485 C 638.26049 295.88856 628.0158 311.637828 631.405876 327.646464 L 646.521843 399.027324 C 650.568047 418.13441 669.64904 435.031566 689.105217 436.737041 L 750.073845 442.08134 C 764.797478 443.371959 766.419792 438.316356 753.69445 430.798625 L 742.0299 423.907542 C 721.123955 411.556987 720.130913 398.145915 739.813652 393.977794 L 739.813652 393.977794 L 739.813652 393.977794 L 739.813652 393.977794 Z  M 618.014702 419.770518 L 618.014702 419.770518 C 631.883659 416.833568 640.265739 400.859874 636.721184 384.121684 L 625.046928 328.993083 C 621.656853 312.984447 605.907585 302.739757 589.898918 306.129832 L 532.470177 318.291209 C 516.46154 321.681285 506.216881 337.430553 509.606926 353.439189 L 524.722893 424.820048 C 528.769096 443.927135 547.850029 460.82429 567.306267 462.529735 L 628.274895 467.874065 C 642.998528 469.164683 644.620842 464.10908 631.8955 456.59135 L 620.230949 449.700267 C 599.325005 437.349711 598.331963 423.93864 618.014702 419.770518 L 618.014702 419.770518 L 618.014702 419.770518 L 618.014702 419.770518 Z  M 539.315483 515.759471 L 539.315483 515.759471 C 525.446526 518.696422 517.064415 534.670146 520.608971 551.408305 L 532.283257 606.536906 C 535.673332 622.545512 551.4226 632.790202 567.431267 629.400127 L 624.859978 617.23875 C 640.868645 613.848735 651.113335 598.099406 647.723259 582.0908 L 632.607292 510.709941 C 628.561089 491.602855 609.480095 474.705699 590.023918 473.000224 L 529.05529 467.655925 C 514.331688 466.365306 512.709343 471.420909 525.434654 478.93864 L 537.099266 485.829722 C 558.00518 498.180278 558.998222 511.59135 539.315483 515.759471 L 539.315483 515.759471 L 539.315483 515.759471 Z  M 661.114433 489.966746 L 661.114433 489.966746 C 647.245476 492.903697 638.863396 508.877391 642.407951 525.615581 L 654.082207 580.744182 C 657.472282 596.752788 673.22155 606.997478 689.230217 603.607402 L 746.658928 591.446025 C 762.667595 588.05601 772.912285 572.306682 769.522209 556.298076 L 754.406242 484.917216 C 750.360039 465.81013 731.279106 448.912974 711.822868 447.20753 L 650.85424 441.8632 C 636.130608 440.572581 634.508293 445.628184 647.233635 453.145915 L 658.898186 460.036998 C 679.804131 472.387553 680.797173 485.798625 661.114433 489.966746 L 661.114433 489.966746 Z " fill-rule="evenodd" id="Compound Path" fill="currentColor"/>
    </g>
</svg>